<mxfile host="app.diagrams.net" modified="2023-12-29T02:52:58.350Z" agent="Mozilla/5.0 (Windows NT 10.0; Win64; x64) AppleWebKit/537.36 (KHTML, like Gecko) Chrome/120.0.0.0 Safari/537.36" etag="9jV5GzhU42QtPZrOp5pS" version="22.1.15" type="github">
  <diagram name="페이지-1" id="1abEwumi3OLhizVz-p-4">
    <mxGraphModel dx="1453" dy="780" grid="1" gridSize="10" guides="1" tooltips="1" connect="1" arrows="1" fold="1" page="1" pageScale="1" pageWidth="827" pageHeight="1169" math="0" shadow="0">
      <root>
        <mxCell id="0" />
        <mxCell id="1" parent="0" />
        <mxCell id="_GT2bSfoEljd5g593QGn-1" value="관리자&lt;br&gt;" style="shape=umlActor;verticalLabelPosition=bottom;verticalAlign=top;html=1;outlineConnect=0;" vertex="1" parent="1">
          <mxGeometry x="750" y="420" width="30" height="60" as="geometry" />
        </mxCell>
        <mxCell id="_GT2bSfoEljd5g593QGn-2" value="비회원" style="shape=umlActor;verticalLabelPosition=bottom;verticalAlign=top;html=1;outlineConnect=0;" vertex="1" parent="1">
          <mxGeometry x="140" y="280" width="30" height="60" as="geometry" />
        </mxCell>
        <mxCell id="_GT2bSfoEljd5g593QGn-59" style="edgeStyle=orthogonalEdgeStyle;rounded=0;orthogonalLoop=1;jettySize=auto;html=1;exitX=1;exitY=1;exitDx=0;exitDy=0;exitPerimeter=0;" edge="1" parent="1" source="_GT2bSfoEljd5g593QGn-3">
          <mxGeometry relative="1" as="geometry">
            <mxPoint x="169.83333333333348" y="630" as="targetPoint" />
          </mxGeometry>
        </mxCell>
        <mxCell id="_GT2bSfoEljd5g593QGn-3" value="회원" style="shape=umlActor;verticalLabelPosition=bottom;verticalAlign=top;html=1;outlineConnect=0;" vertex="1" parent="1">
          <mxGeometry x="140" y="570" width="30" height="60" as="geometry" />
        </mxCell>
        <mxCell id="_GT2bSfoEljd5g593QGn-15" value="코리아it&lt;br&gt;SYSTEM" style="shape=umlFrame;whiteSpace=wrap;html=1;pointerEvents=0;" vertex="1" parent="1">
          <mxGeometry x="185" y="30" width="520" height="730" as="geometry" />
        </mxCell>
        <mxCell id="_GT2bSfoEljd5g593QGn-17" value="회원가입" style="ellipse;whiteSpace=wrap;html=1;" vertex="1" parent="1">
          <mxGeometry x="240" y="290" width="90" height="60" as="geometry" />
        </mxCell>
        <mxCell id="_GT2bSfoEljd5g593QGn-20" value="정보수정" style="ellipse;whiteSpace=wrap;html=1;" vertex="1" parent="1">
          <mxGeometry x="220" y="530" width="90" height="60" as="geometry" />
        </mxCell>
        <mxCell id="_GT2bSfoEljd5g593QGn-21" value="회원정보조회" style="ellipse;whiteSpace=wrap;html=1;" vertex="1" parent="1">
          <mxGeometry x="220" y="690" width="90" height="60" as="geometry" />
        </mxCell>
        <mxCell id="_GT2bSfoEljd5g593QGn-22" value="회원탈퇴" style="ellipse;whiteSpace=wrap;html=1;" vertex="1" parent="1">
          <mxGeometry x="220" y="610" width="90" height="60" as="geometry" />
        </mxCell>
        <mxCell id="_GT2bSfoEljd5g593QGn-23" value="" style="endArrow=none;html=1;rounded=0;" edge="1" parent="1" source="_GT2bSfoEljd5g593QGn-17" target="_GT2bSfoEljd5g593QGn-2">
          <mxGeometry width="50" height="50" relative="1" as="geometry">
            <mxPoint x="400" y="520" as="sourcePoint" />
            <mxPoint x="450" y="470" as="targetPoint" />
          </mxGeometry>
        </mxCell>
        <mxCell id="_GT2bSfoEljd5g593QGn-24" value="USE" style="edgeLabel;html=1;align=center;verticalAlign=middle;resizable=0;points=[];" vertex="1" connectable="0" parent="_GT2bSfoEljd5g593QGn-23">
          <mxGeometry x="-0.1844" y="1" relative="1" as="geometry">
            <mxPoint as="offset" />
          </mxGeometry>
        </mxCell>
        <mxCell id="_GT2bSfoEljd5g593QGn-27" value="" style="endArrow=none;html=1;rounded=0;exitX=0;exitY=0.5;exitDx=0;exitDy=0;" edge="1" parent="1" source="_GT2bSfoEljd5g593QGn-20">
          <mxGeometry width="50" height="50" relative="1" as="geometry">
            <mxPoint x="250" y="327" as="sourcePoint" />
            <mxPoint x="170" y="610" as="targetPoint" />
            <Array as="points" />
          </mxGeometry>
        </mxCell>
        <mxCell id="_GT2bSfoEljd5g593QGn-28" value="USE" style="edgeLabel;html=1;align=center;verticalAlign=middle;resizable=0;points=[];" vertex="1" connectable="0" parent="_GT2bSfoEljd5g593QGn-27">
          <mxGeometry x="-0.1844" y="1" relative="1" as="geometry">
            <mxPoint as="offset" />
          </mxGeometry>
        </mxCell>
        <mxCell id="_GT2bSfoEljd5g593QGn-29" value="" style="endArrow=none;html=1;rounded=0;exitX=0;exitY=0.5;exitDx=0;exitDy=0;" edge="1" parent="1" source="_GT2bSfoEljd5g593QGn-22" target="_GT2bSfoEljd5g593QGn-3">
          <mxGeometry width="50" height="50" relative="1" as="geometry">
            <mxPoint x="250" y="440" as="sourcePoint" />
            <mxPoint x="180" y="580" as="targetPoint" />
            <Array as="points" />
          </mxGeometry>
        </mxCell>
        <mxCell id="_GT2bSfoEljd5g593QGn-30" value="USE" style="edgeLabel;html=1;align=center;verticalAlign=middle;resizable=0;points=[];" vertex="1" connectable="0" parent="_GT2bSfoEljd5g593QGn-29">
          <mxGeometry x="-0.1844" y="1" relative="1" as="geometry">
            <mxPoint as="offset" />
          </mxGeometry>
        </mxCell>
        <mxCell id="_GT2bSfoEljd5g593QGn-31" value="" style="endArrow=none;html=1;rounded=0;exitX=0;exitY=0.5;exitDx=0;exitDy=0;" edge="1" parent="1" source="_GT2bSfoEljd5g593QGn-21" target="_GT2bSfoEljd5g593QGn-3">
          <mxGeometry width="50" height="50" relative="1" as="geometry">
            <mxPoint x="260" y="450" as="sourcePoint" />
            <mxPoint x="190" y="590" as="targetPoint" />
            <Array as="points">
              <mxPoint x="170" y="610" />
            </Array>
          </mxGeometry>
        </mxCell>
        <mxCell id="_GT2bSfoEljd5g593QGn-32" value="USE" style="edgeLabel;html=1;align=center;verticalAlign=middle;resizable=0;points=[];" vertex="1" connectable="0" parent="_GT2bSfoEljd5g593QGn-31">
          <mxGeometry x="-0.1844" y="1" relative="1" as="geometry">
            <mxPoint as="offset" />
          </mxGeometry>
        </mxCell>
        <mxCell id="_GT2bSfoEljd5g593QGn-33" value="로그인" style="ellipse;whiteSpace=wrap;html=1;" vertex="1" parent="1">
          <mxGeometry x="400" y="610" width="90" height="60" as="geometry" />
        </mxCell>
        <mxCell id="_GT2bSfoEljd5g593QGn-34" value="" style="endArrow=open;dashed=1;html=1;rounded=0;exitX=1;exitY=0.5;exitDx=0;exitDy=0;entryX=0;entryY=0.5;entryDx=0;entryDy=0;startArrow=none;startFill=0;endFill=0;" edge="1" parent="1" source="_GT2bSfoEljd5g593QGn-20" target="_GT2bSfoEljd5g593QGn-33">
          <mxGeometry width="50" height="50" relative="1" as="geometry">
            <mxPoint x="340" y="470" as="sourcePoint" />
            <mxPoint x="390" y="420" as="targetPoint" />
          </mxGeometry>
        </mxCell>
        <mxCell id="_GT2bSfoEljd5g593QGn-37" value="&amp;lt;&amp;lt;include&amp;gt;&amp;gt;" style="edgeLabel;html=1;align=center;verticalAlign=middle;resizable=0;points=[];" vertex="1" connectable="0" parent="_GT2bSfoEljd5g593QGn-34">
          <mxGeometry x="0.2293" relative="1" as="geometry">
            <mxPoint as="offset" />
          </mxGeometry>
        </mxCell>
        <mxCell id="_GT2bSfoEljd5g593QGn-35" value="" style="endArrow=open;dashed=1;html=1;rounded=0;exitX=1;exitY=0.5;exitDx=0;exitDy=0;entryX=-0.02;entryY=0.611;entryDx=0;entryDy=0;entryPerimeter=0;startArrow=none;startFill=0;endFill=0;" edge="1" parent="1" source="_GT2bSfoEljd5g593QGn-22" target="_GT2bSfoEljd5g593QGn-33">
          <mxGeometry width="50" height="50" relative="1" as="geometry">
            <mxPoint x="340" y="440" as="sourcePoint" />
            <mxPoint x="385" y="477" as="targetPoint" />
          </mxGeometry>
        </mxCell>
        <mxCell id="_GT2bSfoEljd5g593QGn-38" value="&amp;lt;&amp;lt;include&amp;gt;&amp;gt;" style="edgeLabel;html=1;align=center;verticalAlign=middle;resizable=0;points=[];" vertex="1" connectable="0" parent="_GT2bSfoEljd5g593QGn-35">
          <mxGeometry x="0.4672" y="1" relative="1" as="geometry">
            <mxPoint x="-20" y="-4" as="offset" />
          </mxGeometry>
        </mxCell>
        <mxCell id="_GT2bSfoEljd5g593QGn-36" value="" style="endArrow=open;dashed=1;html=1;rounded=0;exitX=1.007;exitY=0.611;exitDx=0;exitDy=0;entryX=-0.011;entryY=0.75;entryDx=0;entryDy=0;exitPerimeter=0;startArrow=none;startFill=0;endFill=0;entryPerimeter=0;" edge="1" parent="1" source="_GT2bSfoEljd5g593QGn-21" target="_GT2bSfoEljd5g593QGn-33">
          <mxGeometry width="50" height="50" relative="1" as="geometry">
            <mxPoint x="350" y="450" as="sourcePoint" />
            <mxPoint x="395" y="487" as="targetPoint" />
            <Array as="points" />
          </mxGeometry>
        </mxCell>
        <mxCell id="_GT2bSfoEljd5g593QGn-39" value="&amp;lt;&amp;lt;include&amp;gt;&amp;gt;" style="edgeLabel;html=1;align=center;verticalAlign=middle;resizable=0;points=[];" vertex="1" connectable="0" parent="_GT2bSfoEljd5g593QGn-36">
          <mxGeometry x="0.0267" y="-3" relative="1" as="geometry">
            <mxPoint as="offset" />
          </mxGeometry>
        </mxCell>
        <mxCell id="_GT2bSfoEljd5g593QGn-40" value="학원소개" style="ellipse;whiteSpace=wrap;html=1;" vertex="1" parent="1">
          <mxGeometry x="240" y="410" width="90" height="60" as="geometry" />
        </mxCell>
        <mxCell id="_GT2bSfoEljd5g593QGn-41" value="" style="endArrow=none;html=1;rounded=0;exitX=0;exitY=0.5;exitDx=0;exitDy=0;" edge="1" parent="1" source="_GT2bSfoEljd5g593QGn-40">
          <mxGeometry width="50" height="50" relative="1" as="geometry">
            <mxPoint x="250" y="327" as="sourcePoint" />
            <mxPoint x="170" y="310" as="targetPoint" />
          </mxGeometry>
        </mxCell>
        <mxCell id="_GT2bSfoEljd5g593QGn-42" value="USE" style="edgeLabel;html=1;align=center;verticalAlign=middle;resizable=0;points=[];" vertex="1" connectable="0" parent="_GT2bSfoEljd5g593QGn-41">
          <mxGeometry x="-0.1844" y="1" relative="1" as="geometry">
            <mxPoint as="offset" />
          </mxGeometry>
        </mxCell>
        <mxCell id="_GT2bSfoEljd5g593QGn-43" value="" style="endArrow=none;html=1;rounded=0;exitX=0;exitY=0.5;exitDx=0;exitDy=0;" edge="1" parent="1" source="_GT2bSfoEljd5g593QGn-40">
          <mxGeometry width="50" height="50" relative="1" as="geometry">
            <mxPoint x="250" y="450" as="sourcePoint" />
            <mxPoint x="170" y="610" as="targetPoint" />
          </mxGeometry>
        </mxCell>
        <mxCell id="_GT2bSfoEljd5g593QGn-44" value="USE" style="edgeLabel;html=1;align=center;verticalAlign=middle;resizable=0;points=[];" vertex="1" connectable="0" parent="_GT2bSfoEljd5g593QGn-43">
          <mxGeometry x="-0.1844" y="1" relative="1" as="geometry">
            <mxPoint as="offset" />
          </mxGeometry>
        </mxCell>
        <mxCell id="_GT2bSfoEljd5g593QGn-51" style="edgeStyle=orthogonalEdgeStyle;rounded=0;orthogonalLoop=1;jettySize=auto;html=1;endArrow=none;endFill=0;" edge="1" parent="1" source="_GT2bSfoEljd5g593QGn-45">
          <mxGeometry relative="1" as="geometry">
            <mxPoint x="350" y="440" as="targetPoint" />
            <Array as="points">
              <mxPoint x="350" y="380" />
            </Array>
          </mxGeometry>
        </mxCell>
        <mxCell id="_GT2bSfoEljd5g593QGn-45" value="소개" style="ellipse;whiteSpace=wrap;html=1;" vertex="1" parent="1">
          <mxGeometry x="375" y="370" width="60" height="40" as="geometry" />
        </mxCell>
        <mxCell id="_GT2bSfoEljd5g593QGn-52" style="edgeStyle=orthogonalEdgeStyle;rounded=0;orthogonalLoop=1;jettySize=auto;html=1;entryX=1;entryY=0.5;entryDx=0;entryDy=0;endArrow=block;endFill=0;" edge="1" parent="1" source="_GT2bSfoEljd5g593QGn-46" target="_GT2bSfoEljd5g593QGn-40">
          <mxGeometry relative="1" as="geometry" />
        </mxCell>
        <mxCell id="_GT2bSfoEljd5g593QGn-46" value="연혁" style="ellipse;whiteSpace=wrap;html=1;" vertex="1" parent="1">
          <mxGeometry x="375" y="420" width="60" height="40" as="geometry" />
        </mxCell>
        <mxCell id="_GT2bSfoEljd5g593QGn-47" value="보도자료" style="ellipse;whiteSpace=wrap;html=1;" vertex="1" parent="1">
          <mxGeometry x="375" y="470" width="60" height="40" as="geometry" />
        </mxCell>
        <mxCell id="_GT2bSfoEljd5g593QGn-53" style="edgeStyle=orthogonalEdgeStyle;rounded=0;orthogonalLoop=1;jettySize=auto;html=1;endArrow=none;endFill=0;" edge="1" parent="1" source="_GT2bSfoEljd5g593QGn-47">
          <mxGeometry relative="1" as="geometry">
            <mxPoint x="350" y="440" as="targetPoint" />
          </mxGeometry>
        </mxCell>
        <mxCell id="_GT2bSfoEljd5g593QGn-54" value="수강료 조회" style="ellipse;whiteSpace=wrap;html=1;" vertex="1" parent="1">
          <mxGeometry x="370" y="300" width="70" height="40" as="geometry" />
        </mxCell>
        <mxCell id="_GT2bSfoEljd5g593QGn-57" value="" style="endArrow=none;dashed=1;html=1;rounded=0;entryX=0;entryY=0.5;entryDx=0;entryDy=0;exitX=0.304;exitY=0.028;exitDx=0;exitDy=0;exitPerimeter=0;startArrow=open;startFill=0;" edge="1" parent="1" source="_GT2bSfoEljd5g593QGn-40" target="_GT2bSfoEljd5g593QGn-54">
          <mxGeometry width="50" height="50" relative="1" as="geometry">
            <mxPoint x="310" y="370" as="sourcePoint" />
            <mxPoint x="360" y="320" as="targetPoint" />
            <Array as="points">
              <mxPoint x="267" y="360" />
              <mxPoint x="320" y="360" />
              <mxPoint x="370" y="360" />
            </Array>
          </mxGeometry>
        </mxCell>
        <mxCell id="_GT2bSfoEljd5g593QGn-58" value="&amp;lt;&amp;lt;extends&amp;gt;&amp;gt;" style="edgeLabel;html=1;align=center;verticalAlign=middle;resizable=0;points=[];" vertex="1" connectable="0" parent="_GT2bSfoEljd5g593QGn-57">
          <mxGeometry x="-0.0062" y="1" relative="1" as="geometry">
            <mxPoint as="offset" />
          </mxGeometry>
        </mxCell>
        <mxCell id="_GT2bSfoEljd5g593QGn-60" value="회원관리" style="ellipse;whiteSpace=wrap;html=1;" vertex="1" parent="1">
          <mxGeometry x="580" y="300" width="90" height="60" as="geometry" />
        </mxCell>
        <mxCell id="_GT2bSfoEljd5g593QGn-61" value="강사관리" style="ellipse;whiteSpace=wrap;html=1;" vertex="1" parent="1">
          <mxGeometry x="580" y="420" width="90" height="60" as="geometry" />
        </mxCell>
        <mxCell id="_GT2bSfoEljd5g593QGn-66" value="모니터링" style="ellipse;whiteSpace=wrap;html=1;" vertex="1" parent="1">
          <mxGeometry x="580" y="540" width="90" height="60" as="geometry" />
        </mxCell>
        <mxCell id="_GT2bSfoEljd5g593QGn-67" value="" style="endArrow=none;html=1;rounded=0;entryX=1;entryY=0.5;entryDx=0;entryDy=0;" edge="1" parent="1" target="_GT2bSfoEljd5g593QGn-60">
          <mxGeometry width="50" height="50" relative="1" as="geometry">
            <mxPoint x="750" y="450" as="sourcePoint" />
            <mxPoint x="680" y="447" as="targetPoint" />
          </mxGeometry>
        </mxCell>
        <mxCell id="_GT2bSfoEljd5g593QGn-68" value="USE" style="edgeLabel;html=1;align=center;verticalAlign=middle;resizable=0;points=[];" vertex="1" connectable="0" parent="_GT2bSfoEljd5g593QGn-67">
          <mxGeometry x="-0.1844" y="1" relative="1" as="geometry">
            <mxPoint as="offset" />
          </mxGeometry>
        </mxCell>
        <mxCell id="_GT2bSfoEljd5g593QGn-72" value="" style="endArrow=none;html=1;rounded=0;entryX=1;entryY=0.5;entryDx=0;entryDy=0;" edge="1" parent="1" source="_GT2bSfoEljd5g593QGn-1" target="_GT2bSfoEljd5g593QGn-61">
          <mxGeometry width="50" height="50" relative="1" as="geometry">
            <mxPoint x="750" y="461" as="sourcePoint" />
            <mxPoint x="660" y="350" as="targetPoint" />
          </mxGeometry>
        </mxCell>
        <mxCell id="_GT2bSfoEljd5g593QGn-73" value="USE" style="edgeLabel;html=1;align=center;verticalAlign=middle;resizable=0;points=[];" vertex="1" connectable="0" parent="_GT2bSfoEljd5g593QGn-72">
          <mxGeometry x="-0.1844" y="1" relative="1" as="geometry">
            <mxPoint as="offset" />
          </mxGeometry>
        </mxCell>
        <mxCell id="_GT2bSfoEljd5g593QGn-74" value="" style="endArrow=none;html=1;rounded=0;entryX=1;entryY=0.5;entryDx=0;entryDy=0;" edge="1" parent="1" target="_GT2bSfoEljd5g593QGn-66">
          <mxGeometry width="50" height="50" relative="1" as="geometry">
            <mxPoint x="750" y="450" as="sourcePoint" />
            <mxPoint x="660" y="600" as="targetPoint" />
          </mxGeometry>
        </mxCell>
        <mxCell id="_GT2bSfoEljd5g593QGn-75" value="USE" style="edgeLabel;html=1;align=center;verticalAlign=middle;resizable=0;points=[];" vertex="1" connectable="0" parent="_GT2bSfoEljd5g593QGn-74">
          <mxGeometry x="-0.1844" y="1" relative="1" as="geometry">
            <mxPoint as="offset" />
          </mxGeometry>
        </mxCell>
        <mxCell id="_GT2bSfoEljd5g593QGn-85" value="" style="edgeStyle=orthogonalEdgeStyle;rounded=0;orthogonalLoop=1;jettySize=auto;html=1;endArrow=block;endFill=0;" edge="1" parent="1" source="_GT2bSfoEljd5g593QGn-77" target="_GT2bSfoEljd5g593QGn-60">
          <mxGeometry relative="1" as="geometry">
            <Array as="points">
              <mxPoint x="560" y="275" />
              <mxPoint x="560" y="330" />
            </Array>
          </mxGeometry>
        </mxCell>
        <mxCell id="_GT2bSfoEljd5g593QGn-77" value="회원조회" style="ellipse;whiteSpace=wrap;html=1;" vertex="1" parent="1">
          <mxGeometry x="470" y="250" width="70" height="50" as="geometry" />
        </mxCell>
        <mxCell id="_GT2bSfoEljd5g593QGn-82" style="edgeStyle=orthogonalEdgeStyle;rounded=0;orthogonalLoop=1;jettySize=auto;html=1;endArrow=block;endFill=0;" edge="1" parent="1" source="_GT2bSfoEljd5g593QGn-78" target="_GT2bSfoEljd5g593QGn-60">
          <mxGeometry relative="1" as="geometry">
            <Array as="points">
              <mxPoint x="560" y="330" />
              <mxPoint x="560" y="330" />
            </Array>
          </mxGeometry>
        </mxCell>
        <mxCell id="_GT2bSfoEljd5g593QGn-78" value="회원수정" style="ellipse;whiteSpace=wrap;html=1;" vertex="1" parent="1">
          <mxGeometry x="470" y="310" width="70" height="50" as="geometry" />
        </mxCell>
        <mxCell id="_GT2bSfoEljd5g593QGn-79" value="회원삭제" style="ellipse;whiteSpace=wrap;html=1;" vertex="1" parent="1">
          <mxGeometry x="470" y="370" width="70" height="50" as="geometry" />
        </mxCell>
        <mxCell id="_GT2bSfoEljd5g593QGn-86" style="edgeStyle=orthogonalEdgeStyle;rounded=0;orthogonalLoop=1;jettySize=auto;html=1;exitX=1;exitY=0.6;exitDx=0;exitDy=0;endArrow=none;endFill=0;exitPerimeter=0;" edge="1" parent="1" source="_GT2bSfoEljd5g593QGn-79">
          <mxGeometry relative="1" as="geometry">
            <mxPoint x="540" y="395.82" as="sourcePoint" />
            <mxPoint x="560" y="330" as="targetPoint" />
          </mxGeometry>
        </mxCell>
        <mxCell id="_GT2bSfoEljd5g593QGn-88" value="전체" style="ellipse;whiteSpace=wrap;html=1;" vertex="1" parent="1">
          <mxGeometry x="520" y="180" width="60" height="40" as="geometry" />
        </mxCell>
        <mxCell id="_GT2bSfoEljd5g593QGn-93" style="edgeStyle=orthogonalEdgeStyle;rounded=0;orthogonalLoop=1;jettySize=auto;html=1;exitX=1;exitY=0.5;exitDx=0;exitDy=0;entryX=0;entryY=0.5;entryDx=0;entryDy=0;endArrow=none;endFill=0;" edge="1" parent="1" source="_GT2bSfoEljd5g593QGn-89" target="_GT2bSfoEljd5g593QGn-88">
          <mxGeometry relative="1" as="geometry" />
        </mxCell>
        <mxCell id="_GT2bSfoEljd5g593QGn-89" value="키워드" style="ellipse;whiteSpace=wrap;html=1;" vertex="1" parent="1">
          <mxGeometry x="430" y="180" width="60" height="40" as="geometry" />
        </mxCell>
        <mxCell id="_GT2bSfoEljd5g593QGn-94" value="" style="endArrow=none;html=1;rounded=0;exitX=0.5;exitY=0;exitDx=0;exitDy=0;endFill=0;startArrow=classic;startFill=1;" edge="1" parent="1" source="_GT2bSfoEljd5g593QGn-77">
          <mxGeometry width="50" height="50" relative="1" as="geometry">
            <mxPoint x="470" y="250" as="sourcePoint" />
            <mxPoint x="505" y="200" as="targetPoint" />
          </mxGeometry>
        </mxCell>
        <mxCell id="_GT2bSfoEljd5g593QGn-96" value="수강신청" style="ellipse;whiteSpace=wrap;html=1;" vertex="1" parent="1">
          <mxGeometry x="310" y="120" width="70" height="40" as="geometry" />
        </mxCell>
        <mxCell id="_GT2bSfoEljd5g593QGn-97" value="강의 조회" style="ellipse;whiteSpace=wrap;html=1;" vertex="1" parent="1">
          <mxGeometry x="230" y="180" width="70" height="40" as="geometry" />
        </mxCell>
        <mxCell id="_GT2bSfoEljd5g593QGn-98" value="결제 방식" style="ellipse;whiteSpace=wrap;html=1;" vertex="1" parent="1">
          <mxGeometry x="413.5" y="80" width="70" height="40" as="geometry" />
        </mxCell>
        <mxCell id="_GT2bSfoEljd5g593QGn-101" value="" style="edgeStyle=orthogonalEdgeStyle;rounded=0;orthogonalLoop=1;jettySize=auto;html=1;" edge="1" parent="1" source="_GT2bSfoEljd5g593QGn-99" target="_GT2bSfoEljd5g593QGn-100">
          <mxGeometry relative="1" as="geometry" />
        </mxCell>
        <mxCell id="_GT2bSfoEljd5g593QGn-99" value="확인" style="ellipse;whiteSpace=wrap;html=1;" vertex="1" parent="1">
          <mxGeometry x="515" y="50" width="70" height="40" as="geometry" />
        </mxCell>
        <mxCell id="_GT2bSfoEljd5g593QGn-100" value="결제 시스템" style="whiteSpace=wrap;html=1;" vertex="1" parent="1">
          <mxGeometry x="700" y="40" width="120" height="60" as="geometry" />
        </mxCell>
      </root>
    </mxGraphModel>
  </diagram>
</mxfile>
